<?xml version="1.0" ?><!DOCTYPE svg  PUBLIC '-//W3C//DTD SVG 1.1//EN'  'http://www.w3.org/Graphics/SVG/1.1/DTD/svg11.dtd'><svg enable-background="new 0 0 32 32"  id="Слой_1" version="1.1" viewBox="0 0 32 32"  xml:space="preserve" xmlns="http://www.w3.org/2000/svg" xmlns:xlink="http://www.w3.org/1999/xlink"><g id="Arrow_Drop_Down_Circle"><path clip-rule="evenodd" d="M16,0C7.164,0,0,7.164,0,16c0,8.837,7.164,16,16,16   c8.837,0,16-7.163,16-16C32,7.164,24.837,0,16,0z M16,30.031C8.28,30.031,2,23.72,2,16C2,8.28,8.28,2,16,2c7.72,0,14,6.28,14,14   C30,23.72,23.72,30.031,16,30.031z" fill="#FFFFFF" fill-rule="evenodd"/><path clip-rule="evenodd" d="M23.374,13.08c-0.134-0.056-0.276-0.079-0.419-0.075H9.013   c-0.887-0.024-1.38,1.07-0.742,1.702l6.999,6.899c0.386,0.382,1.043,0.382,1.429,0l6.991-6.892   C24.207,14.221,24.034,13.346,23.374,13.08C23.24,13.025,23.74,13.228,23.374,13.08C23.24,13.025,23.74,13.228,23.374,13.08   C23.24,13.025,23.74,13.228,23.374,13.08z M15.984,19.488l-4.559-4.494h9.118L15.984,19.488z" fill="#FFFFFF" fill-rule="evenodd"/></g><g/><g/><g/><g/><g/><g/></svg>